<?xml version="1.0" encoding="utf-8"?>
<!-- Generator: Adobe Illustrator 23.0.3, SVG Export Plug-In . SVG Version: 6.00 Build 0)  -->
<svg version="1.1" baseProfile="tiny" id="Режим_изоляции"
	 xmlns="http://www.w3.org/2000/svg" xmlns:xlink="http://www.w3.org/1999/xlink" x="0px" y="0px"
	 viewBox="568.25 723.35 509.92 509.92" xml:space="preserve">
<path fill="#37B6AE" stroke="#37B6AE" stroke-width="2.1464" stroke-miterlimit="10" d="M706.31,853.9h14.56v19.42h24.28v49.63
	c0,13.11,6.52,25.3,17.43,32.58l51.53,34.34l-51.53,34.34c-10.91,7.28-17.43,19.47-17.43,32.58v49.63h-24.28v19.42h-14.56v9.73
	h233.1v-9.73h-14.56v-19.42h-24.28v-49.63c0-13.11-6.52-25.3-17.43-32.58l-51.53-34.34l51.53-34.34
	c10.91-7.28,17.43-19.47,17.43-32.58v-49.63h24.28V853.9h14.56v-9.73h-233.1 M730.59,863.59v-9.69h184.53v9.69H730.59z
	 M767.96,947.45c-8.21-5.48-13.09-14.63-13.09-24.49v-49.63h135.97v49.63c0,9.86-4.88,19.01-13.09,24.49l-54.9,36.59L767.96,947.45z
	 M754.88,1056.78c0-9.86,4.88-19.01,13.09-24.49l54.9-36.59l54.9,36.59c8.21,5.48,13.09,14.63,13.09,24.49v49.63H754.88V1056.78z
	 M730.59,1116.14h184.53v9.69H730.59V1116.14z M730.59,1116.14"/>
<circle fill="none" stroke="#37B6AE" stroke-width="20.5625" stroke-miterlimit="10" cx="823.21" cy="978.31" r="244.68"/>
</svg>
