<?xml version="1.0" encoding="utf-8"?>
<!-- Generator: Adobe Illustrator 23.0.3, SVG Export Plug-In . SVG Version: 6.00 Build 0)  -->
<svg version="1.1" baseProfile="tiny" id="Режим_изоляции"
	 xmlns="http://www.w3.org/2000/svg" xmlns:xlink="http://www.w3.org/1999/xlink" x="0px" y="0px"
	 viewBox="560.73 142.13 509.92 509.92" xml:space="preserve">
<path fill="#FFFFFF" d="M889.96,288.01c0.98-19.85,3.16-39.64,6.55-59.22l1.08-7.14H739.94l0.84,6.98
	c2.22,19.55,2.41,39.28,0.58,58.87c-14.96,30.82-28.64,60.84-31.76,89.32c-6.89,62.66,1.98,130.91,12.47,201.08l0.62,4.12l4.04,1
	c22.72,6,45.87,10.24,69.25,12.66l6,0.62l0.81-5.99c3.07-28.81,4.32-57.79,3.74-86.75c0.05-25.16,0.09-49.04,2.16-69.93h13.71
	c2.06,20.89,2.1,44.76,2.16,69.9c-0.59,28.97,0.65,57.96,3.71,86.78l0.81,5.99l6.01-0.62c23.35-2.41,46.49-6.63,69.19-12.63l4.04-1
	l0.62-4.12c10.52-70.2,19.39-138.42,12.5-201.08C918.39,348.49,904.82,318.65,889.96,288.01L889.96,288.01z M752.57,292.94
	c3.29-6.77,2.86-39.27,1.25-58.83h129.29c-7.69,52.49-5.47,57.06-4.61,58.83c8.77,17.31,16.47,35.14,23.06,53.38H729.51
	C736.1,328.07,743.81,310.25,752.57,292.94L752.57,292.94z M794.03,503.49c0.44,26.4-0.52,52.79-2.85,79.09
	c-19.33-2.27-38.5-5.83-57.35-10.65c-10.11-67.91-18.41-133.78-11.85-193.75c0.6-4.95,1.48-9.86,2.66-14.71l71.94,66.39
	C794.48,454.34,793.63,478.92,794.03,503.49L794.03,503.49z M825.56,421.12H805.5l-67.53-62.34h155.12L825.56,421.12z
	 M897.25,571.92c-18.85,4.83-38.02,8.39-57.35,10.65c-2.34-26.3-3.29-52.71-2.85-79.11c0.38-24.57-0.47-49.14-2.57-73.62l71.94-66.4
	c1.18,4.85,2.06,9.76,2.66,14.71C915.66,438.14,907.37,504.03,897.25,571.92L897.25,571.92z M897.25,571.92"/>
<path fill="#FFFFFF" d="M815.53,296.45c-3.44,0-6.24,2.79-6.24,6.23v12.47c0,3.44,2.79,6.23,6.24,6.23s6.23-2.79,6.23-6.23v-12.47
	C821.77,299.24,818.98,296.45,815.53,296.45L815.53,296.45z M815.53,296.45"/>
<path fill="#FFFFFF" d="M711.76,308.46c0.3-0.11,0.59-0.25,0.87-0.41c0.23-0.13,0.44-0.27,0.66-0.42c0.26-0.2,0.5-0.42,0.73-0.66
	c0.18-0.18,0.35-0.37,0.51-0.58c0.31-0.45,0.58-0.91,0.83-1.39l12.47-31.17c1.27-3.2-0.28-6.83-3.48-8.1
	c-3.2-1.27-6.83,0.28-8.1,3.48l-8.95,22.39L664.1,248.4c-2.45-2.36-6.34-2.33-8.74,0.08c-2.4,2.41-2.44,6.29-0.08,8.74l41.31,41.3
	l-25.45,4.25c-3.19,0.54-5.44,3.43-5.17,6.66c0.26,3.23,2.96,5.71,6.19,5.72c0.35,0,0.69-0.03,1.03-0.09l37.4-6.24
	C710.73,308.8,711.51,308.56,711.76,308.46L711.76,308.46z M711.76,308.46"/>
<rect x="652.95" y="221.64" fill="none" width="325.48" height="374.65"/>
<path fill="#FFFFFF" d="M966.97,248.4l-43.18,43.19l-8.95-22.39c-1.28-3.2-4.91-4.75-8.11-3.48c-3.2,1.28-4.75,4.91-3.48,8.1
	l12.47,31.17c0.24,0.48,0.52,0.95,0.82,1.39c0.16,0.2,0.33,0.39,0.51,0.58c0.23,0.24,0.47,0.46,0.73,0.66
	c0.2,0.15,0.41,0.3,0.62,0.42c0.28,0.16,0.57,0.3,0.87,0.41c0.26,0.1,1.04,0.34,1.18,0.37l37.4,6.24c0.35,0.06,0.7,0.09,1.05,0.09
	c3.24-0.01,5.93-2.5,6.19-5.72c0.27-3.23-1.98-6.12-5.17-6.66l-25.45-4.25l41.3-41.3c1.62-1.57,2.27-3.88,1.7-6.06
	c-0.57-2.18-2.27-3.88-4.45-4.45C970.85,246.13,968.53,246.78,966.97,248.4L966.97,248.4z M966.97,248.4"/>
<circle fill="none" stroke="#FFFFFF" stroke-width="20.5625" stroke-miterlimit="10" cx="815.69" cy="397.09" r="244.68"/>
</svg>
