<?xml version="1.0" encoding="utf-8"?>
<!-- Generator: Adobe Illustrator 23.0.3, SVG Export Plug-In . SVG Version: 6.00 Build 0)  -->
<svg version="1.1" baseProfile="tiny" id="Режим_изоляции"
	 xmlns="http://www.w3.org/2000/svg" xmlns:xlink="http://www.w3.org/1999/xlink" x="0px" y="0px"
	 viewBox="-48.4 1324.3 509.92 509.92" xml:space="preserve">
<circle fill="none" stroke="#FFFFFF" stroke-width="20.5625" stroke-miterlimit="10" cx="206.56" cy="1579.26" r="244.68"/>
<path fill="#FFFFFF" d="M309.61,1609.96v-131.03c0-13.08-10.64-23.73-23.73-23.73c-4.34,0-8.36,1.26-11.86,3.3v-9.23
	c0-13.08-10.64-23.73-23.73-23.73c-4.44,0-8.56,1.3-12.12,3.44c-1.26-11.9-11.24-21.23-23.47-21.23c-12.23,0-22.21,9.34-23.47,21.23
	c-3.56-2.14-7.68-3.44-12.12-3.44c-13.08,0-23.73,10.64-23.73,23.73v88l-7.45-22.36c-3.63-10.88-13.78-18.19-25.25-18.19
	c-14.67,0-26.61,11.94-26.61,27.11c0,2.16,0.27,4.33,0.79,6.45l28.24,112.96c0.78,3.13,2.4,5.99,4.68,8.27l17.92,17.92
	c1.12,1.13,1.74,2.62,1.74,4.21v95.92c0,3.27,2.66,5.93,5.93,5.93h124.56c3.27,0,5.93-2.66,5.93-5.93v-113.24
	c0-2.35,0.69-4.63,1.99-6.58l17.75-26.62C308.23,1619.21,309.61,1614.66,309.61,1609.96z M297.75,1609.96
	c0,2.35-0.69,4.63-1.99,6.58l-17.75,26.62c-2.61,3.91-3.99,8.46-3.99,13.16v107.31h-112.7v-89.98c0-4.75-1.85-9.22-5.21-12.59
	l-17.92-17.92c-0.76-0.76-1.3-1.71-1.56-2.76l-28.24-112.96c-0.29-1.17-0.44-2.38-0.44-4.08c0-8.13,6.62-14.75,14.75-14.75
	c6.36,0,11.99,4.06,13.99,10.09l19.01,57.04c0.92,2.75,3.69,4.43,6.58,3.98c2.88-0.47,4.98-2.95,4.98-5.86v-124.56
	c0-6.54,5.32-11.86,11.86-11.86c6.54,0,11.86,5.32,11.86,11.86v118.63h11.86v-118.63v-17.79c0-6.54,5.32-11.86,11.86-11.86
	c6.54,0,11.86,5.32,11.86,11.86v17.79v118.63h11.86v-118.63c0-6.54,5.32-11.86,11.86-11.86s11.86,5.32,11.86,11.86v29.66v88.97
	h11.86v-88.97c0-6.54,5.32-11.86,11.86-11.86s11.86,5.32,11.86,11.86V1609.96z"/>
<path fill="#FFFFFF" d="M264.25,1606.82c-4.63,0-8.39,3.75-8.39,8.38s3.75,8.39,8.39,8.39s8.39-3.76,8.39-8.39
	S268.89,1606.82,264.25,1606.82z"/>
<path fill="#FFFFFF" d="M255.87,1719.52c-4.63,0-8.39,3.75-8.39,8.38c0,4.63,3.75,8.39,8.39,8.39c4.63,0,8.39-3.76,8.39-8.39
	S260.5,1719.52,255.87,1719.52z"/>
<path fill="#FFFFFF" d="M166.34,1606.82c-4.63,0-8.39,3.75-8.39,8.38s3.75,8.39,8.39,8.39s8.39-3.76,8.39-8.39
	S170.97,1606.82,166.34,1606.82z"/>
<path fill="#FFFFFF" d="M188.98,1702.75c-4.63,0-8.39,3.75-8.39,8.38c0,4.63,3.75,8.39,8.39,8.39c4.63,0,8.39-3.76,8.39-8.39
	S193.62,1702.75,188.98,1702.75z"/>
<path fill="#FFFFFF" d="M218.23,1661.78c-4.63,0-8.39,3.75-8.39,8.38s3.75,8.39,8.39,8.39c4.63,0,8.39-3.76,8.39-8.39
	S222.86,1661.78,218.23,1661.78z"/>
<path fill="#FFFFFF" d="M209.84,1581.66c-4.63,0-8.39,3.75-8.39,8.38s3.75,8.39,8.39,8.39s8.39-3.76,8.39-8.39
	S214.47,1581.66,209.84,1581.66z"/>
</svg>
