<?xml version="1.0" encoding="utf-8"?>
<!-- Generator: Adobe Illustrator 23.0.3, SVG Export Plug-In . SVG Version: 6.00 Build 0)  -->
<svg version="1.1" baseProfile="tiny" id="Режим_изоляции"
	 xmlns="http://www.w3.org/2000/svg" xmlns:xlink="http://www.w3.org/1999/xlink" x="0px" y="0px"
	 viewBox="-47.84 142.13 509.92 509.92" xml:space="preserve">
<path fill="#FFFFFF" d="M207,221.42c4.71,0,8.52-3.81,8.52-8.52v-17.05c0-4.71-3.81-8.52-8.52-8.52s-8.52,3.81-8.52,8.52v17.05
	C198.48,217.6,202.29,221.42,207,221.42z"/>
<path fill="#FFFFFF" d="M198.48,383.39v17.04c0,4.72,3.81,8.54,8.52,8.54s8.52-3.82,8.52-8.54v-17.04c0-4.71-3.81-8.53-8.52-8.53
	S198.48,378.68,198.48,383.39z"/>
<path fill="#FFFFFF" d="M140.69,243.89L140.69,243.89c3.33,3.33,8.73,3.33,12.06,0c3.33-3.33,3.33-8.72,0-12.05v-0.01l-12.06-12.05
	l0,0c-3.33-3.33-8.73-3.33-12.06,0c-3.33,3.33-3.33,8.72,0,12.06L140.69,243.89z"/>
<path fill="#FFFFFF" d="M285.35,364.45l-12.04-12.06l0,0c-3.33-3.33-8.74-3.33-12.06,0c-3.32,3.33-3.32,8.73,0,12.06c0,0,0,0,0,0.01
	l12.06,12.05l0,0l0,0c3.32,3.33,8.72,3.33,12.05,0c3.33-3.33,3.33-8.73,0-12.06H285.35z"/>
<path fill="#FFFFFF" d="M104.71,306.67h17.04h0.01c4.71,0,8.52-3.82,8.52-8.53c0-4.71-3.81-8.52-8.52-8.52l0,0h-17.05l0,0
	c-4.71,0-8.52,3.81-8.52,8.52S100,306.67,104.71,306.67z"/>
<path fill="#FFFFFF" d="M292.24,289.62c-4.71,0-8.52,3.81-8.52,8.52s3.81,8.53,8.52,8.53l0,0h17.06l0,0l0,0
	c4.7,0,8.52-3.82,8.52-8.53c0-4.71-3.82-8.52-8.52-8.52h-0.01H292.24L292.24,289.62z"/>
<path fill="#FFFFFF" d="M140.69,352.39L140.69,352.39l-12.06,12.06c-3.33,3.33-3.33,8.73,0,12.06c3.33,3.33,8.73,3.33,12.06,0
	l12.05-12.05l0.01-0.01c3.33-3.33,3.33-8.73,0-12.06C149.42,349.06,144.03,349.06,140.69,352.39z"/>
<path fill="#FFFFFF" d="M261.25,243.89c3.32,3.33,8.72,3.33,12.06,0.01l0,0l12.05-12.06v-0.01c3.33-3.33,3.33-8.72,0-12.05
	c-3.33-3.33-8.73-3.33-12.05,0c0,0-0.01,0.01-0.02,0.01l-12.04,12.05l0,0C257.93,235.17,257.93,240.56,261.25,243.89z"/>
<path fill="#FFFFFF" stroke="#FFFFFF" stroke-miterlimit="10" d="M207,366.34c37.67,0,68.2-30.53,68.2-68.2
	c0-37.66-30.53-68.19-68.2-68.19s-68.2,30.53-68.2,68.19C138.8,335.81,169.33,366.34,207,366.34z M207,243.9
	c29.91,0,54.25,24.33,54.25,54.24c0,29.91-24.34,54.24-54.25,54.24s-54.24-24.33-54.24-54.24C152.76,268.23,177.09,243.9,207,243.9z
	"/>
<rect x="-23.87" y="455.56" fill="#FFFFFF" width="460.87" height="16.37"/>
<polyline fill="none" stroke="#FFFFFF" stroke-width="13.9797" stroke-miterlimit="10" points="76.7,465.36 90.91,513.8 64.6,552 
	"/>
<polyline fill="none" stroke="#FFFFFF" stroke-width="13.9797" stroke-miterlimit="10" points="236.98,465.36 227.39,495.66 
	215.16,534.32 246.88,588.11 "/>
<line fill="none" stroke="#FFFFFF" stroke-width="13.9797" stroke-miterlimit="10" x1="175.58" y1="522.32" x2="227.39" y2="495.66"/>
<polyline fill="none" stroke="#FFFFFF" stroke-width="13.9797" stroke-miterlimit="10" points="90.91,513.8 126,562.91 
	113.55,588.11 "/>
<polyline fill="none" stroke="#FFFFFF" stroke-width="13.9797" stroke-miterlimit="10" points="296.19,465.04 324.7,513.8 
	307.59,532.98 278.94,565.09 "/>
<polyline fill="none" stroke="#FFFFFF" stroke-width="13.9797" stroke-miterlimit="10" points="353.76,565.09 334.12,565.09 
	307.59,532.98 "/>
<circle fill="none" stroke="#FFFFFF" stroke-width="20.5625" stroke-miterlimit="10" cx="207.13" cy="397.09" r="244.68"/>
</svg>
