<?xml version="1.0" encoding="utf-8"?>
<!-- Generator: Adobe Illustrator 23.0.3, SVG Export Plug-In . SVG Version: 6.00 Build 0)  -->
<svg version="1.1" baseProfile="tiny" id="Режим_изоляции"
	 xmlns="http://www.w3.org/2000/svg" xmlns:xlink="http://www.w3.org/1999/xlink" x="0px" y="0px" viewBox="0 0 380 380"
	 xml:space="preserve">
<g>
	<path fill="#68A9BE" d="M380,190c0,104.93-85.07,190-190,190S0,294.93,0,190C0,85.07,85.07,0,190,0S380,85.07,380,190L380,190z
		 M380,190"/>
	<path fill="#FFFFFF" d="M237.76,197.44h-33.9v124.2h-51.36v-124.2h-24.43v-43.66h24.43v-28.24c0-20.19,9.59-51.83,51.83-51.83
		l38.03,0.17v42.37h-27.6c-4.53,0-10.9,2.26-10.9,11.89v25.7h38.4L237.76,197.44z M237.76,197.44"/>
</g>
</svg>
