<?xml version="1.0" encoding="utf-8"?>
<!-- Generator: Adobe Illustrator 23.0.3, SVG Export Plug-In . SVG Version: 6.00 Build 0)  -->
<svg version="1.1" baseProfile="tiny" id="Режим_изоляции"
	 xmlns="http://www.w3.org/2000/svg" xmlns:xlink="http://www.w3.org/1999/xlink" x="0px" y="0px"
	 viewBox="1226.76 143.34 509.92 509.92" xml:space="preserve">
<path fill="#FFFFFF" d="M1483.96,554.35c-45.48-0.05-83.45-34.71-87.64-80h-152.36v-16h168v8c0,39.76,32.24,72,72,72s72-32.24,72-72
	v-8h168v16H1571.6C1567.41,519.64,1529.45,554.3,1483.96,554.35z"/>
<path fill="#FFFFFF" d="M1483.96,522.35c-30.91-0.04-55.96-25.09-56-56v-0.94c0.01-8.27,1-16.5,2.95-24.54
	c14.22-69.72,90.65-219.8,93.92-226.16c2-3.94,6.82-5.51,10.76-3.51c3.17,1.61,4.9,5.12,4.24,8.62
	c-0.23,1.22-22.56,122.29-9.11,189.49c4.36,18.78,7.45,37.84,9.25,57.04C1539.92,497.26,1514.88,522.31,1483.96,522.35z
	 M1516.38,268.25c-24.37,51.01-60.8,131.67-69.79,175.83c-1.72,6.95-2.6,14.08-2.62,21.24v1.03c0,22.09,17.91,40,40,40
	s40-17.91,40-40c-1.74-18.15-4.73-36.16-8.94-53.9C1506.63,370.5,1511.16,310.7,1516.38,268.25L1516.38,268.25z"/>
<circle fill="none" stroke="#FFFFFF" stroke-width="20.5625" stroke-miterlimit="10" cx="1481.72" cy="398.3" r="244.68"/>
</svg>
