<?xml version="1.0" encoding="utf-8"?>
<!-- Generator: Adobe Illustrator 23.0.3, SVG Export Plug-In . SVG Version: 6.00 Build 0)  -->
<svg version="1.1" baseProfile="tiny" id="Режим_изоляции"
	 xmlns="http://www.w3.org/2000/svg" xmlns:xlink="http://www.w3.org/1999/xlink" x="0px" y="0px" viewBox="0 0 380 380"
	 xml:space="preserve">
<circle fill="#FFFFFF" cx="190" cy="192.23" r="158.24"/>
<g>
	<path fill="#68A9BE" d="M246.64,101.11H133.38c-18.09,0-32.78,14.7-32.78,32.79v113.25c0,18.09,14.7,32.81,32.78,32.81h113.26
		c18.07,0,32.79-14.72,32.79-32.81V133.89C279.43,115.8,264.71,101.11,246.64,101.11L246.64,101.11z M190,249.39
		c-32.45,0-58.87-26.42-58.87-58.88c0-32.46,26.42-58.88,58.87-58.88c32.48,0,58.87,26.42,58.87,58.88
		C248.87,222.97,222.45,249.39,190,249.39L190,249.39z M250.78,143.82c-7.69,0-13.93-6.24-13.93-13.93
		c0-7.67,6.24-13.93,13.93-13.93c7.67,0,13.93,6.26,13.93,13.93C264.71,137.58,258.45,143.82,250.78,143.82L250.78,143.82z
		 M250.78,143.82"/>
	<path fill="#68A9BE" d="M190,156.53c-18.73,0-33.99,15.24-33.99,33.99c0,18.75,15.26,34,33.99,34c18.75,0,34.01-15.25,34.01-34
		C224,171.79,208.75,156.53,190,156.53L190,156.53z M190,156.53"/>
	<path fill="#68A9BE" d="M190,0C85.07,0,0,85.07,0,190c0,104.93,85.07,190,190,190s190-85.07,190-190C380,85.07,294.93,0,190,0
		L190,0z M304.3,247.14c0,31.82-25.86,57.67-57.66,57.67H133.38c-31.79,0-57.67-25.86-57.67-57.67V133.89
		c0-31.79,25.88-57.67,57.67-57.67h113.26c31.8,0,57.66,25.88,57.66,57.67V247.14z M304.3,247.14"/>
</g>
</svg>
