<?xml version="1.0" encoding="utf-8"?>
<!-- Generator: Adobe Illustrator 23.0.3, SVG Export Plug-In . SVG Version: 6.00 Build 0)  -->
<svg version="1.1" baseProfile="tiny" id="Слой_1"
	 xmlns="http://www.w3.org/2000/svg" xmlns:xlink="http://www.w3.org/1999/xlink" x="0px" y="0px" viewBox="0 0 878.43 291.47"
	 xml:space="preserve">
<g>
	<g>
		<path fill="#999FA4" d="M865.4,50.79c13.02-14.97,15.63-32.56,7.16-50.79c-22.14,3.91-35.82,20.83-35.82,42.32v0.65
			c0.65,26.05,14.33,41.68,38.42,50.8C882.33,76.19,877.12,59.91,865.4,50.79"/>
		<path fill="#999FA4" d="M801.4,0c-7.81,18.23-5.86,35.82,7.17,50.79c-11.72,9.12-16.94,25.4-9.77,42.98
			c24.09-9.12,37.77-24.75,38.42-50.8v-0.65C837.22,20.83,823.54,3.91,801.4,0"/>
	</g>
	<g>
		<rect x="271.15" y="234.37" fill="#333F48" width="3.72" height="44.32"/>
		<rect x="284.26" y="235.55" fill="#333F48" width="3.72" height="4.96"/>
		<rect x="284.26" y="248.56" fill="#333F48" width="3.72" height="30.14"/>
		<path fill="#333F48" d="M298.86,256.06c0-3.83,2.65-5.02,6.5-5.02c2.07,0,4.72,0.53,6.68,1.42l0.36-3.25
			c-2.67-1-5.86-1.36-7.45-1.36c-4.96,0-9.82,2.25-9.82,8.21c0,8.75,14.49,7.63,14.49,14.78c0,3.43-3.14,5.38-6.69,5.38
			c-2.9,0-5.62-0.78-7.86-1.9l-0.35,3.67c2.66,1.08,5.55,1.42,8.45,1.42c4.55,0,10.52-2.18,10.52-8.56
			C313.69,260.97,298.86,261.68,298.86,256.06"/>
		<path fill="#333F48" d="M330.54,276.22c-3,0-4.02-2.26-4.02-4.96v-19.5h6.86v-3.2h-6.86v-8.58l-3.73,1.31v7.27h-5.9v3.2h5.9v17.6
			c0,5.49,0.23,10.04,6.86,10.04c1.84,0,3.67-0.47,4.55-0.83l-0.24-3.07C332.91,275.92,331.96,276.22,330.54,276.22"/>
		<path fill="#333F48" d="M350.51,247.85c-7.62,0-12.7,6.55-12.7,15.78c0,9.03,3.72,15.77,13.7,15.77c2.79,0,6.16-0.59,8.76-1.65
			v-3.79c-1.77,1.14-5.73,2.26-8.44,2.26c-6.51,0-9.95-5.14-9.95-11.54h20.63v-1.87C362.51,254.7,359.04,247.85,350.51,247.85
			 M341.88,261.5c0-4.96,3.38-10.47,8.87-10.47c5.56,0,7.69,5.21,7.69,10.47H341.88z"/>
		<path fill="#333F48" d="M382.86,247.85c-6.27,0-8.52,3.37-9.75,6.08h-0.14v-5.38h-3.59c0.24,2.42,0.24,4.79,0.24,7.1v23.05h3.72
			v-16.67c0-5.03,2.13-11,8.92-11c5.15,0,7.16,3.67,7.16,9.34v18.32h3.72v-19.26C393.14,252.81,390.31,247.85,382.86,247.85"/>
		<rect x="402.48" y="248.56" fill="#333F48" width="3.72" height="30.14"/>
		<rect x="402.48" y="235.55" fill="#333F48" width="3.72" height="4.96"/>
		<path fill="#333F48" d="M428.84,247.85c-6.28,0-8.51,3.37-9.75,6.08h-0.12v-5.38h-3.61c0.24,2.42,0.24,4.79,0.24,7.1v23.05h3.72
			v-16.67c0-5.03,2.13-11,8.92-11c5.14,0,7.15,3.67,7.15,9.34v18.32h3.72v-19.26C439.12,252.81,436.28,247.85,428.84,247.85"/>
		<path fill="#333F48" d="M468.62,251.98h-0.12c-2.78-3.6-5.38-4.13-9.41-4.13c-8.86,0-12.41,6.61-12.41,15.78
			c0,6.67,3.08,15.06,12.71,15.06c3.85,0,7.15-1.54,9.16-5.91h0.12c0,8.52-0.83,15.49-10.4,15.49c-3.25,0-6.56-0.95-8.86-2.12
			l-0.31,3.72c1.55,0.47,5.15,1.6,9.11,1.6c10.34,0,14.13-6.86,14.13-15.25v-27.66h-3.72V251.98z M459.46,275.5
			c-6.34,0-8.69-5.97-8.69-11.87c0-5.85,1.83-12.6,8.92-12.6c6.8,0,8.93,5.33,8.93,12.6C468.62,269.12,466.19,275.5,459.46,275.5"/>
		<path fill="#333F48" d="M507.94,276.22c-3.01,0-4.02-2.26-4.02-4.96v-19.5h6.85v-3.2h-6.85v-8.58l-3.74,1.31v7.27h-5.9v3.2h5.9
			v17.6c0,5.49,0.25,10.04,6.86,10.04c1.83,0,3.67-0.47,4.55-0.83l-0.24-3.07C510.3,275.92,509.35,276.22,507.94,276.22"/>
		<path fill="#333F48" d="M529.21,247.85c-9.76,0-14.07,7.57-14.07,15.78c0,8.2,4.31,15.77,14.07,15.77
			c9.75,0,14.07-7.56,14.07-15.77C543.28,255.42,538.96,247.85,529.21,247.85 M529.21,276.22c-6.5,0-10-5.61-10-12.58
			c0-6.99,3.49-12.6,10-12.6c6.5,0,10,5.61,10,12.6C539.21,270.61,535.71,276.22,529.21,276.22"/>
		<path fill="#333F48" d="M575.2,273.68h-0.05l-8.46-25.12h-4.06l10.68,30.5l-0.77,2.65c-1.17,3.9-2.24,6.57-5.44,6.57
			c-1.36,0-2.07-0.24-2.77-0.47l-0.36,3.18c1.24,0.3,2.67,0.48,4.03,0.48c4.19,0,6.33-4.15,7.73-8.28l12.07-34.64h-3.91
			L575.2,273.68z"/>
		<path fill="#333F48" d="M604.76,247.85c-9.75,0-14.06,7.57-14.06,15.78c0,8.2,4.3,15.77,14.06,15.77
			c9.76,0,14.06-7.56,14.06-15.77C618.82,255.42,614.52,247.85,604.76,247.85 M604.76,276.22c-6.5,0-10-5.61-10-12.58
			c0-6.99,3.5-12.6,10-12.6c6.5,0,10,5.61,10,12.6C614.75,270.61,611.26,276.22,604.76,276.22"/>
		<path fill="#333F48" d="M649.39,248.56h-3.73v16.67c0,5.03-2.12,11-8.92,11c-5.14,0-7.15-3.66-7.15-9.34v-18.33h-3.72v19.27
			c0,6.61,2.84,11.58,10.28,11.58c6.26,0,8.52-3.36,9.75-6.08h0.12v5.38h3.6c-0.23-2.43-0.23-4.79-0.23-7.09V248.56z"/>
		<path fill="#333F48" d="M662.34,254.34h-0.13v-5.79h-3.72c0.24,2.19,0.24,3.43,0.24,6.74v23.4h3.72v-14.9
			c0-5.43,1.61-12.05,7.51-12.05c0.94,0,1.94,0.11,2.71,0.36v-3.9c-0.65-0.19-1.72-0.36-2.61-0.36
			C666.24,247.86,663.7,250.99,662.34,254.34"/>
		<path fill="#333F48" d="M696.32,256.06c0-3.83,2.67-5.02,6.51-5.02c2.06,0,4.73,0.53,6.67,1.42l0.36-3.25
			c-2.65-1-5.85-1.36-7.45-1.36c-4.96,0-9.81,2.25-9.81,8.21c0,8.75,14.47,7.63,14.47,14.78c0,3.43-3.13,5.38-6.66,5.38
			c-2.9,0-5.63-0.78-7.87-1.9l-0.36,3.67c2.66,1.08,5.56,1.42,8.45,1.42c4.55,0,10.53-2.18,10.53-8.56
			C711.16,260.97,696.32,261.68,696.32,256.06"/>
		<polygon fill="#333F48" points="739.83,248.56 735.05,248.56 721.57,260.92 721.57,234.38 717.85,234.38 717.85,278.7 
			721.57,278.7 721.57,263.22 736.46,278.7 741.6,278.7 725.1,261.92 		"/>
		<rect x="747.41" y="248.56" fill="#333F48" width="3.72" height="30.14"/>
		<rect x="747.41" y="235.55" fill="#333F48" width="3.72" height="4.96"/>
		<path fill="#333F48" d="M773.76,247.85c-6.26,0-8.5,3.37-9.75,6.08h-0.11v-5.38h-3.61c0.24,2.42,0.24,4.79,0.24,7.1v23.05h3.72
			v-16.67c0-5.03,2.11-11,8.91-11c5.15,0,7.16,3.67,7.16,9.34v18.32h3.73v-19.26C784.05,252.81,781.21,247.85,773.76,247.85"/>
	</g>
	<g>
		<path fill="#333F48" d="M787.21,176.61c0-15.87,0.13-32.48,0.13-47.79c0-3.28-0.03-6.33-0.36-9.2
			c-1.63-14.33-9.12-23.37-22.05-27.06c-5.14-1.44-11.66-2.14-18.44-1.84c-3.55,0.15-6.93,0.37-10.22,0.78
			c-8.02,1.01-16.51,3.03-23.04,5.63c-1.18,0.47-3.22,1.44-3.67,2.5c-1.16,2.83,1.97,8.61,2.92,11.24
			c4.48-0.63,21.69-4.14,36.13-4.14c17.56,0,20.37,7.97,20.37,21.27c0,2.75-0.07,8.13-0.01,11.04c-18.27-2.04-38.72-1.39-51.68,4.69
			c-9.71,4.58-17.98,13.29-17.98,29.64c0,21.26,14.88,31.64,35.24,31.64c13.83,0,26.27-5.51,35.22-12.98c0,4.56,3.15,12.3,9.31,12.3
			c3.78,0,9.17-1.06,10.72-2.43c-1.51-5.32-2.28-9.49-2.58-15.74C787.06,183.06,787.21,179.82,787.21,176.61 M768.97,168.53v7.62
			c-1.2,1.85-12.25,14.29-33.53,14.29c-8.25,0-17.24-4.79-17.24-18.09c0-11.05,7.41-16.49,16.29-19.04
			c3.46-0.99,7.27-1.64,11.36-1.94c7.66-0.58,16.03-0.14,23.35,0.54C769.16,157.54,768.97,162.87,768.97,168.53"/>
		<path fill="#333F48" d="M162.55,101.8c-7.23-7.47-17.37-11.26-30.16-11.26c-1.46,0-2.98,0.06-4.5,0.16
			c-14.3,0.92-25.49,6.38-32.41,15.8c-6.5,8.91-9.73,21.64-10.16,40.1c-0.19,8.05,0.5,15.59,2.06,22.45
			c1.68,7.38,4.29,13.58,7.75,18.44c4.6,6.41,11,11.14,19.05,14.11c6.87,2.53,15.19,3.81,24.71,3.81c8.88,0,20.54-2.06,30.11-4.98
			c2.78-0.84,3.95-2.28,4.47-4.91c0.55-2.79,0.27-8.28-0.08-11.76c-6.41,1.14-20.34,4.94-34.49,4.94c-8.42,0-14.82-1.31-19.66-3.8
			c-8.45-4.33-13.28-14.16-13.28-31.02h63.67c4.05,0,6.09-2.21,6.16-4.76c0.26-10.04-0.59-18.88-2.44-26.3
			C171.22,114.08,167.57,107.02,162.55,101.8 M105.96,138.32c0.69-9.18,2.67-16.2,5.64-20.96c3.75-6.08,9.51-9.31,17.69-9.91
			c0.97-0.08,1.94-0.11,2.86-0.11c8.45,0,14.83,3.08,18.91,9.17c3.15,4.68,5.49,11.97,5.91,21.8H105.96z"/>
		<path fill="#333F48" d="M383.65,187.48c4.59,6.41,11,11.14,19.02,14.11c6.88,2.53,15.19,3.81,24.7,3.81
			c8.89,0,20.55-2.05,30.09-4.98c2.8-0.84,3.98-2.28,4.49-4.91c0.55-2.79,0.26-8.28-0.09-11.76c-6.38,1.14-20.31,4.94-34.45,4.94
			c-8.43,0-14.82-1.31-19.66-3.8c-8.46-4.33-13.27-14.16-13.27-31.01h63.65c4.04,0,6.08-2.22,6.15-4.76
			c0.27-10.05-0.58-18.88-2.43-26.31c-2.17-8.72-5.81-15.78-10.84-20.99c-7.23-7.47-17.37-11.26-30.15-11.26
			c-1.45,0-2.97,0.06-4.5,0.16c-14.28,0.92-25.48,6.38-32.36,15.8c-6.52,8.91-9.76,21.64-10.19,40.1
			c-0.19,8.05,0.49,15.6,2.06,22.45C377.56,176.42,380.17,182.62,383.65,187.48 M400.09,117.37c3.76-6.07,9.51-9.31,17.68-9.91
			c0.97-0.08,1.94-0.11,2.85-0.11c8.46,0,14.83,3.08,18.92,9.17c3.15,4.69,5.47,11.97,5.91,21.8h-50.98
			C395.14,129.14,397.12,122.12,400.09,117.37"/>
		<path fill="#333F48" d="M238.7,138.66c-3.58-1.41-7.38-2.51-11.04-3.55c-5.48-1.56-10.66-3.05-14.97-5.5
			c-1.68-0.96-9.97-6.23-6.55-15.35c2.36-6.28,13.36-7.59,22.16-7.59c7.72,0,15.86,0.75,27.1,2.73l2.86,0.51
			c0,0,2.43-5.44,3.13-9.53c0.42-2.36-0.74-4.49-3.48-5.5c-3.87-1.39-19.68-4.36-31.21-4.36c-8.64,0-15.99,0.94-21.85,2.81
			c-7.29,2.33-12.52,6.15-15.54,11.36c-4.69,8.11-4.58,23.77,2.61,32.55c6.21,7.59,16.5,10.79,26.47,13.89
			c10.48,3.25,20.35,6.31,24.33,13.94c3.77,7.27,1.48,15.46-2.82,18.89c-3.95,3.16-10.75,4.7-20.18,4.7
			c-14.4,0-30.38-4.36-34.6-5.17c-0.22,1.67-0.77,7.6-0.06,12.08c0.36,2.22,1.75,3.83,4.51,4.65c5.96,1.77,18.1,4.92,30.14,4.92
			c13.01,0,23.33-2.19,30.67-6.5c9.3-5.46,14.01-14.24,14.01-26.07c0-9.05-2.67-16.61-7.92-22.5
			C252.34,145.44,246.67,141.81,238.7,138.66"/>
		<path fill="#333F48" d="M53.97,138.66c-3.58-1.41-7.37-2.51-11.03-3.55c-5.49-1.56-10.67-3.05-14.98-5.5
			c-1.69-0.96-9.97-6.23-6.54-15.35c2.36-6.28,13.35-7.59,22.15-7.59c7.72,0,15.86,0.75,27.1,2.73l2.86,0.51
			c0,0,2.44-5.44,3.14-9.53c0.41-2.36-0.75-4.49-3.49-5.5c-3.86-1.39-19.67-4.36-31.2-4.36c-8.64,0-16,0.94-21.84,2.81
			c-7.3,2.33-12.52,6.15-15.54,11.36c-4.7,8.11-4.58,23.77,2.59,32.55c6.22,7.59,16.52,10.79,26.49,13.89
			c10.46,3.25,20.36,6.31,24.31,13.94c3.78,7.27,1.48,15.46-2.83,18.89c-3.94,3.16-10.72,4.7-20.16,4.7
			c-14.39,0-30.4-4.36-34.62-5.17c-0.22,1.67-0.75,7.6-0.04,12.08c0.34,2.22,1.75,3.83,4.5,4.65c5.97,1.77,18.12,4.92,30.15,4.92
			c13.01,0,23.34-2.19,30.67-6.5c9.3-5.46,14.02-14.24,14.02-26.07c0-9.05-2.68-16.61-7.94-22.5
			C67.61,145.44,61.94,141.81,53.97,138.66"/>
		<path fill="#333F48" d="M361.7,182.26V51.48h-17.93v45.11c-6.79-2.58-12.94-4.8-21.27-5.55c-2.17-0.19-4.26-0.3-6.31-0.3
			c-14.13,0-25.3,4.47-33.27,13.29c-7.41,8.23-11.58,19.74-12.32,34.21c-0.45,8.43-0.05,16.86,1.15,24.38
			c1.39,8.62,3.75,15.8,7.03,21.32c3.62,6.05,9.09,11.22,15.82,14.92c6.83,3.78,14.47,5.75,22.08,5.75
			c12.64,0,20.77-2.16,27.73-7.55c0.45,1.75,1.24,3.21,2.34,4.38c1.85,1.94,4.42,2.91,7.66,2.91c2.76,0,5.41-0.72,7.14-1.32
			l2.67-0.92l-0.64-2.74C362.66,195.5,361.7,187.66,361.7,182.26 M343.77,173.77c0,2.96-2.28,6.6-6.03,9.49
			c-4.36,3.38-9.98,5.32-15.48,5.32c-9.2,0-15.98-2.39-21.32-7.5c-6.01-5.73-9.89-18.2-10.16-32.54
			c-0.23-14.44,3.2-27.11,9.05-33.09c4.49-4.61,12.56-7.24,22.17-7.24c7.78,0,15.86,1.73,21.77,4.65V173.77z"/>
		<path fill="#333F48" d="M692.06,182.27v-36.4c0-15.11-0.72-28.32-6.66-38.45c-2.72-4.63-7.65-8.75-11.93-11.33
			c-5.74-3.45-13.37-5.28-22.14-5.28c-11.62,0-25.03,3.3-34.74,8.44c-6.53-5.49-16.23-8.4-28.49-8.4c-11.31,0-24.33,2.49-35.4,6.64
			c-2.36,0.89-3.57,1.76-5.64,2.86c-2.93,1.56-2.5,4.33-2.5,6.61v98.69h19.24v-92.52c6.41-2.04,15.02-4.99,24.82-4.99
			c7.72,0,12.65,1.86,15.88,5.53c2.97,3.39,4.18,10.58,4.18,18.19v73.79h19.24v-90.11c6.41-3.71,14.58-7.5,23.78-7.5
			c4.15,0,7.15,0.81,10.11,2.37c10.47,5.54,11,22.29,11,40.03v42.63c0,3.53-0.09,7,1.87,8.96c1.95,1.95,3.64,3.61,7.13,3.61h0.02
			c4.44,0,9.05-1.69,11.06-2.89C692.54,201.28,692.06,196.67,692.06,182.27"/>
		<path fill="#333F48" d="M530.89,110.16c0,0,1.94,0.31,2.54,0.45c0.88-1.58,2.08-5.14,2.36-7.06c0.32-2.26,0.06-4.53-1.89-6.28
			c-2.24-1.97-8.11-3.91-16.11-3.91c-9.42,0-18.11,4.74-24.52,9.73V94.3c0-1.8-0.65-4.13-6.72-3.11
			c-6.71,1.12-12.52,3.08-12.52,6.58v18.73v53.98v35.16h19.24v-35.16v-47.99c6.41-6.03,15.72-13.08,27.82-13.08
			C524.49,109.41,528.06,109.66,530.89,110.16"/>
	</g>
</g>
</svg>
