<?xml version="1.0" encoding="utf-8"?>
<!-- Generator: Adobe Illustrator 23.0.3, SVG Export Plug-In . SVG Version: 6.00 Build 0)  -->
<svg version="1.1" baseProfile="tiny" id="Режим_изоляции"
	 xmlns="http://www.w3.org/2000/svg" xmlns:xlink="http://www.w3.org/1999/xlink" x="0px" y="0px"
	 viewBox="1226.76 744.58 509.92 509.92" xml:space="preserve">
<circle fill="none" stroke="#FFFFFF" stroke-width="20.5625" stroke-miterlimit="10" cx="1481.72" cy="999.54" r="244.68"/>
<path fill="#FFFFFF" d="M1577.69,888.45c-8.29,10.43-6.58,25.6,3.88,33.92c10.4,8.27,25.6,6.53,33.89-3.9
	c8.29-10.43,6.54-25.61-3.86-33.88C1601.14,876.28,1585.98,878.02,1577.69,888.45z"/>
<path fill="#FFFFFF" d="M1535.42,974.89c-6.95,11.37-3.39,26.22,8.01,33.18c11.34,6.93,26.2,3.34,33.15-8.03
	c6.95-11.37,3.35-26.22-7.99-33.15C1557.19,959.93,1542.37,963.52,1535.42,974.89z"/>
<path fill="#FFFFFF" d="M1461.53,894.54c-6,7.55-4.76,18.52,2.81,24.54c7.53,5.98,18.52,4.72,24.52-2.82s4.73-18.53-2.79-24.51
	C1478.49,885.73,1467.52,886.99,1461.53,894.54z"/>
<path fill="#FFFFFF" d="M1481.81,1118.01c-6,7.55-4.76,18.52,2.81,24.54c7.53,5.98,18.52,4.72,24.52-2.82
	c6-7.55,4.73-18.53-2.79-24.51C1498.77,1109.2,1487.81,1110.46,1481.81,1118.01z"/>
<path fill="#FFFFFF" d="M1563.02,915.34c-6,7.55-4.76,18.52,2.81,24.54c7.53,5.98,18.52,4.72,24.52-2.82s4.73-18.53-2.79-24.51
	C1579.98,906.53,1569.01,907.8,1563.02,915.34z"/>
<path fill="#FFFFFF" d="M1399.57,1039.42c-6,7.55-4.76,18.52,2.81,24.54c7.53,5.98,18.52,4.72,24.52-2.82
	c6-7.55,4.73-18.53-2.79-24.51C1416.53,1030.61,1405.56,1031.88,1399.57,1039.42z"/>
<path fill="#FFFFFF" d="M1446.5,1163.79c-4.34,5.46-3.44,13.4,2.03,17.75c5.45,4.33,13.4,3.42,17.74-2.04
	c4.34-5.46,3.42-13.41-2.02-17.73C1458.77,1157.42,1450.84,1158.33,1446.5,1163.79z"/>
<path fill="#FFFFFF" d="M1443.64,1000.06c-4.34,5.46-3.44,13.4,2.03,17.75c5.45,4.33,13.4,3.42,17.74-2.04
	c4.34-5.46,3.42-13.41-2.02-17.73C1455.91,993.69,1447.98,994.6,1443.64,1000.06z"/>
<path fill="#FFFFFF" d="M1450.76,1080.06c-4.34,5.46-3.44,13.4,2.03,17.75c5.45,4.33,13.4,3.42,17.74-2.04
	c4.34-5.46,3.42-13.41-2.02-17.73C1463.03,1073.69,1455.09,1074.6,1450.76,1080.06z"/>
<path fill="#FFFFFF" d="M1565.46,1042.42c-4.34,5.46-3.44,13.4,2.03,17.75c5.45,4.33,13.4,3.42,17.74-2.04
	c4.34-5.46,3.42-13.41-2.02-17.73C1577.74,1036.05,1569.8,1036.96,1565.46,1042.42z"/>
<path fill="#FFFFFF" d="M1372.97,976.57c-6.02,11.89-1.29,26.4,10.62,32.44c11.85,6.01,26.39,1.25,32.41-10.64
	c6.02-11.89,1.26-26.4-10.6-32.41C1393.48,959.92,1378.99,964.68,1372.97,976.57z"/>
<path fill="#FFFFFF" d="M1335.03,890.38c-8.29,10.43-6.58,25.6,3.88,33.92c10.4,8.27,25.6,6.53,33.89-3.9
	c8.29-10.43,6.54-25.61-3.86-33.88C1358.47,878.21,1343.32,879.96,1335.03,890.38z"/>
<path fill="#FFFFFF" d="M1415.73,930.85c-8.29,10.43-6.58,25.6,3.88,33.92c10.4,8.27,25.6,6.53,33.89-3.9
	c8.29-10.43,6.54-25.61-3.86-33.88C1439.18,918.67,1424.02,920.42,1415.73,930.85z"/>
<path fill="#FFFFFF" d="M1496.77,1013.14c-8.29,10.43-6.58,25.6,3.88,33.92c10.4,8.27,25.6,6.53,33.89-3.9
	c8.29-10.43,6.54-25.61-3.86-33.88C1520.21,1000.97,1505.06,1002.71,1496.77,1013.14z"/>
<path fill="#FFFFFF" d="M1531.26,1165.61c-2.17,2.73-1.72,6.7,1.02,8.88c2.72,2.16,6.7,1.71,8.87-1.02
	c2.17-2.73,1.71-6.71-1.01-8.87C1537.39,1162.42,1533.43,1162.88,1531.26,1165.61z"/>
<path fill="#FFFFFF" d="M1493.21,1085.09c-2.17,2.73-1.72,6.7,1.02,8.88c2.72,2.16,6.7,1.71,8.87-1.02
	c2.17-2.73,1.71-6.71-1.01-8.87C1499.35,1081.9,1495.38,1082.36,1493.21,1085.09z"/>
<path fill="#FFFFFF" d="M1408.28,1124.94c-2.17,2.73-1.72,6.7,1.02,8.88c2.72,2.16,6.7,1.71,8.87-1.02
	c2.17-2.73,1.71-6.71-1.01-8.87C1414.42,1121.75,1410.45,1122.21,1408.28,1124.94z"/>
<path fill="#FFFFFF" d="M1531.26,1129.24c-2.17,2.73-1.72,6.7,1.02,8.88c2.72,2.16,6.7,1.71,8.87-1.02
	c2.17-2.73,1.71-6.71-1.01-8.87C1537.39,1126.05,1533.43,1126.51,1531.26,1129.24z"/>
<path fill="#FFFFFF" d="M1537.34,849.92c-8.29,10.43-6.58,25.6,3.88,33.92c10.4,8.27,25.6,6.53,33.89-3.9
	c8.29-10.43,6.54-25.61-3.86-33.88C1560.79,837.75,1545.63,839.49,1537.34,849.92z"/>
<path fill="#FFFFFF" d="M1484.74,880.82c-13.57,17.08-10.77,41.92,6.35,55.52c17.03,13.53,41.9,10.69,55.48-6.39
	c13.57-17.08,10.71-41.93-6.32-55.46C1523.12,860.89,1498.31,863.75,1484.74,880.82z"/>
<path fill="#FFFFFF" d="M1490.53,1205.79c-2.17,2.73-1.72,6.7,1.02,8.88c2.72,2.16,6.7,1.71,8.87-1.02
	c2.17-2.73,1.71-6.71-1.01-8.87C1496.67,1202.6,1492.7,1203.06,1490.53,1205.79z"/>
<path fill="#FFFFFF" d="M1363.58,839.39c-13.57,17.08-10.77,41.92,6.35,55.52c17.03,13.53,41.9,10.69,55.48-6.39
	s10.71-41.93-6.32-55.46C1401.96,819.46,1377.15,822.32,1363.58,839.39z"/>
<path fill="#FFFFFF" d="M1570.4,1086.44c-2.17,2.73-1.72,6.7,1.02,8.88c2.72,2.16,6.7,1.71,8.87-1.02c2.17-2.73,1.71-6.71-1.01-8.87
	C1576.54,1083.25,1572.57,1083.71,1570.4,1086.44z"/>
<path fill="#FFFFFF" d="M1481.81,795c-6,7.55-4.76,18.52,2.81,24.54c7.53,5.98,18.52,4.72,24.52-2.82s4.73-18.53-2.79-24.51
	C1498.77,786.19,1487.81,787.46,1481.81,795z"/>
<path fill="#FFFFFF" d="M1449.79,841.73c-2.17,2.73-1.72,6.7,1.02,8.88c2.72,2.16,6.7,1.71,8.87-1.02s1.71-6.71-1.01-8.87
	C1455.93,838.54,1451.96,838.99,1449.79,841.73z"/>
<path fill="#FFFFFF" d="M1490.53,966.05c-2.17,2.73-1.72,6.7,1.02,8.88c2.72,2.16,6.7,1.71,8.87-1.02c2.17-2.73,1.71-6.71-1.01-8.87
	C1496.67,962.86,1492.7,963.32,1490.53,966.05z"/>
<path fill="#FFFFFF" d="M1350.04,941.93c-2.17,2.73-1.72,6.7,1.02,8.88c2.72,2.16,6.7,1.71,8.87-1.02c2.17-2.73,1.71-6.71-1.01-8.87
	C1356.18,938.74,1352.21,939.2,1350.04,941.93z"/>
</svg>
