<?xml version="1.0" encoding="utf-8"?>
<!-- Generator: Adobe Illustrator 23.0.3, SVG Export Plug-In . SVG Version: 6.00 Build 0)  -->
<svg version="1.1" baseProfile="tiny" id="Режим_изоляции"
	 xmlns="http://www.w3.org/2000/svg" xmlns:xlink="http://www.w3.org/1999/xlink" x="0px" y="0px"
	 viewBox="-44.26 710.07 509.92 509.92" xml:space="preserve">
<path fill="#FFFFFF" d="M293.28,795.22c-21.76-11.2-46.3-16.51-70.7-16.51c-77.54,0-153.44,53.73-132.76,142.87l-13.63,16.49
	l-24.08,44.08l23.43,18.61l-0.97,31.32l9.36,13.42c0,0-11.15,41.87,5.89,47.82c16.02,5.59,33.48,6.98,46.85,6.98
	c13.17,0,22.38-1.35,22.38-1.35l1.86,38.1h158.13c0,0-15.65-78.98,8.13-112.52C350.91,990.99,428.43,864.8,293.28,795.22z
	 M299.26,1093.96c0.42,10.6,1.39,20.37,2.36,28.17h-126.5l-1.17-23.91l-0.78-16.42l-16.26,2.37c-0.08,0.01-8.46,1.18-20.24,1.18
	c-10.72,0-26.3-0.98-40.46-5.64c-0.64-1.9-1.43-6.74-0.49-15.57c0.85-7.95,2.63-14.76,2.64-14.81l1.78-6.69l-3.96-5.69l-6.53-9.36
	l0.82-26.37l0.24-7.49l-5.87-4.66l-13.59-10.81l17.37-31.8l12.72-15.39l4.7-5.69l-1.67-7.2c-3.72-16.04-4.05-31.28-0.97-45.29
	c2.81-12.81,8.46-24.63,16.8-35.13c10.75-13.52,25.97-24.75,44.04-32.46c17.89-7.64,38.06-11.69,58.34-11.69
	c22.9,0,44.98,5.14,63.86,14.86c19.78,10.18,35.54,22.15,46.85,35.58c9.74,11.56,16.42,24.51,19.83,38.5
	c5.6,22.93,2.82,49.21-8.25,78.1c-9.45,24.65-22.79,45.19-29.91,55.23C303.16,1032.57,297.87,1058.84,299.26,1093.96z"/>
<path fill="#FFFFFF" d="M189.23,974.37c-4.63,0-8.39,3.75-8.39,8.38c0,4.63,3.75,8.39,8.39,8.39s8.39-3.76,8.39-8.39
	S193.86,974.37,189.23,974.37z"/>
<path fill="#FFFFFF" d="M155.68,1007.92c-4.63,0-8.39,3.76-8.39,8.39s3.76,8.39,8.39,8.39s8.39-3.76,8.39-8.39
	S160.31,1007.92,155.68,1007.92z"/>
<path fill="#FFFFFF" d="M122.12,907.26c-4.63,0-8.39,3.76-8.39,8.39s3.75,8.39,8.39,8.39c4.63,0,8.39-3.75,8.39-8.39
	C130.52,911.02,126.76,907.26,122.12,907.26z"/>
<path fill="#FFFFFF" d="M88.57,941.11c-4.63,0-8.39,3.75-8.39,8.39c0,4.62,3.75,8.38,8.39,8.38s8.39-3.76,8.39-8.38
	C96.96,944.86,93.21,941.11,88.57,941.11z"/>
<path fill="#FFFFFF" d="M122.12,974.37c-4.63,0-8.39,3.75-8.39,8.38c0,4.63,3.75,8.39,8.39,8.39c4.63,0,8.39-3.76,8.39-8.39
	S126.76,974.37,122.12,974.37z"/>
<path fill="#FFFFFF" d="M155.68,941.11c-4.63,0-8.39,3.75-8.39,8.39c0,4.62,3.76,8.38,8.39,8.38s8.39-3.76,8.39-8.38
	C164.07,944.86,160.31,941.11,155.68,941.11z"/>
<path fill="#FFFFFF" d="M189.23,907.26c-4.63,0-8.39,3.76-8.39,8.39s3.75,8.39,8.39,8.39s8.39-3.75,8.39-8.39
	C197.62,911.02,193.86,907.26,189.23,907.26z"/>
<path fill="#FFFFFF" d="M189.23,1041.47c-4.63,0-8.39,3.75-8.39,8.39c0,4.62,3.75,8.38,8.39,8.38s8.39-3.76,8.39-8.38
	C197.62,1045.22,193.86,1041.47,189.23,1041.47z"/>
<path fill="#FFFFFF" d="M122.12,1041.47c-4.63,0-8.39,3.75-8.39,8.39c0,4.62,3.75,8.38,8.39,8.38c4.63,0,8.39-3.76,8.39-8.38
	C130.52,1045.22,126.76,1041.47,122.12,1041.47z"/>
<path fill="#FFFFFF" d="M222.78,1007.92c-4.63,0-8.39,3.76-8.39,8.39s3.75,8.39,8.39,8.39c4.63,0,8.39-3.76,8.39-8.39
	S227.41,1007.92,222.78,1007.92z"/>
<path fill="#FFFFFF" d="M222.78,941.11c-4.63,0-8.39,3.75-8.39,8.39c0,4.62,3.75,8.38,8.39,8.38c4.63,0,8.39-3.76,8.39-8.38
	C231.17,944.86,227.41,941.11,222.78,941.11z"/>
<circle fill="none" stroke="#FFFFFF" stroke-width="20.5625" stroke-miterlimit="10" cx="210.7" cy="965.04" r="244.68"/>
</svg>
