<?xml version="1.0" encoding="utf-8"?>
<!-- Generator: Adobe Illustrator 23.0.3, SVG Export Plug-In . SVG Version: 6.00 Build 0)  -->
<svg version="1.1" baseProfile="tiny" id="Режим_изоляции"
	 xmlns="http://www.w3.org/2000/svg" xmlns:xlink="http://www.w3.org/1999/xlink" x="0px" y="0px" viewBox="0 0 380 380"
	 xml:space="preserve">
<g>
	<path fill="#68A9BE" d="M380,190c0,104.93-85.07,190-190,190S0,294.93,0,190C0,85.07,85.07,0,190,0S380,85.07,380,190L380,190z
		 M380,190"/>
	<path fill="#FFFFFF" d="M306.37,136.55c-8.14,3.61-16.9,6.05-26.08,7.15c9.38-5.63,16.57-14.52,19.98-25.12
		c-8.78,5.19-18.51,8.98-28.84,11.02c-8.29-8.83-20.09-14.34-33.16-14.34c-25.09,0-45.41,20.34-45.41,45.41
		c0,3.56,0.39,7.03,1.17,10.36c-37.74-1.9-71.21-19.98-93.6-47.46c-3.92,6.71-6.15,14.52-6.15,22.84c0,15.76,8.02,29.67,20.19,37.81
		c-7.44-0.23-14.44-2.28-20.57-5.69c0,0.2,0,0.38,0,0.58c0,21.99,15.66,40.35,36.43,44.52c-3.8,1.04-7.82,1.6-11.96,1.6
		c-2.93,0-5.77-0.28-8.55-0.81c5.79,18.04,22.56,31.17,42.44,31.54c-15.55,12.19-35.13,19.43-56.41,19.43
		c-3.67,0-7.29-0.2-10.83-0.63c20.09,12.88,43.96,20.41,69.6,20.41c83.53,0,129.23-69.21,129.23-129.22c0-1.97-0.05-3.92-0.13-5.87
		C292.6,153.65,300.29,145.65,306.37,136.55L306.37,136.55z M306.37,136.55"/>
</g>
</svg>
