<?xml version="1.0" encoding="utf-8"?>
<!-- Generator: Adobe Illustrator 23.0.3, SVG Export Plug-In . SVG Version: 6.00 Build 0)  -->
<svg version="1.1" baseProfile="tiny" id="Режим_изоляции"
	 xmlns="http://www.w3.org/2000/svg" xmlns:xlink="http://www.w3.org/1999/xlink" x="0px" y="0px" viewBox="0 0 380 380"
	 xml:space="preserve">
<g>
	<g>
		<path fill="#68A9BE" d="M379.22,189.91c0,104.45-84.89,189.13-189.61,189.13C84.89,379.04,0,294.36,0,189.91
			C0,85.45,84.89,0.77,189.61,0.77C294.33,0.77,379.22,85.45,379.22,189.91L379.22,189.91z M379.22,189.91"/>
	</g>
	<path fill="#FFFFFF" d="M288.84,153.41c0-15.86-12.88-28.71-28.76-28.71H125.12c-15.88,0-28.76,12.85-28.76,28.71v76.97
		c0,15.86,12.88,28.71,28.76,28.71h134.95c15.89,0,28.76-12.85,28.76-28.71L288.84,153.41L288.84,153.41z M173.35,224.37v-72.3
		l54.97,36.15L173.35,224.37z M173.35,224.37"/>
</g>
</svg>
