<?xml version="1.0" standalone="no"?>
<!DOCTYPE svg PUBLIC "-//W3C//DTD SVG 20010904//EN"
 "http://www.w3.org/TR/2001/REC-SVG-20010904/DTD/svg10.dtd">
<svg version="1.0" xmlns="http://www.w3.org/2000/svg"
 width="196.000000pt" height="196.000000pt" viewBox="0 0 196.000000 196.000000"
 preserveAspectRatio="xMidYMid meet">
<metadata>
Created by potrace 1.11, written by Peter Selinger 2001-2013
</metadata>
<g transform="translate(0.000000,196.000000) scale(0.100000,-0.100000)"
fill="#000000" stroke="none">
<path d="M329 1798 c-20 -37 -58 -178 -64 -240 -8 -69 -8 -215 -1 -226 2 -4 7
-28 11 -52 14 -95 97 -261 174 -349 l21 -25 -48 -45 c-180 -171 -232 -410
-146 -674 15 -45 18 -48 43 -42 70 18 268 131 349 200 158 135 274 340 297
526 4 30 8 56 10 57 2 2 7 -18 10 -45 11 -71 53 -200 88 -268 91 -176 234
-308 453 -419 126 -64 132 -64 155 4 62 188 46 379 -46 536 -15 26 -54 75 -87
108 -32 33 -58 63 -58 67 0 4 6 14 13 21 29 29 97 136 125 199 27 58 39 95 59
174 3 11 6 70 8 130 3 121 -10 200 -51 313 l-26 72 -37 -6 c-158 -30 -338
-139 -443 -269 -40 -49 -130 -203 -128 -220 0 -3 -1 -7 -1 -10 -4 -14 -6 -25
-19 -78 -8 -35 -16 -53 -21 -45 -4 6 -6 15 -4 19 7 11 -53 178 -81 228 -101
173 -247 293 -429 352 -90 29 -114 30 -126 7z"/>
</g>
</svg>
